<svg xmlns="http://www.w3.org/2000/svg" version="1.1" xmlns:xlink="http://www.w3.org/1999/xlink" xmlns:svgjs="http://svgjs.dev/svgjs" width="1500" height="261" viewBox="0 0 1500 261"><g transform="matrix(1,0,0,1,-0.9090909090909918,0.14699353681476168)"><svg viewBox="0 0 396 69" data-background-color="#000000" preserveAspectRatio="xMidYMid meet" height="261" width="1500" xmlns="http://www.w3.org/2000/svg" xmlns:xlink="http://www.w3.org/1999/xlink"><g id="tight-bounds" transform="matrix(1,0,0,1,0.2400000000000091,-0.0388603603073534)"><svg viewBox="0 0 395.52 69.0777207206147" height="69.0777207206147" width="395.52"><g><svg viewBox="0 0 501.18091071854656 87.5314395760495" height="69.0777207206147" width="395.52"><g transform="matrix(1,0,0,1,105.6609107185466,24.56695419717995)"><svg viewBox="0 0 395.52 38.397531181689594" height="38.397531181689594" width="395.52"><g id="textblocktransform"><svg viewBox="0 0 395.52 38.397531181689594" height="38.397531181689594" width="395.52" id="textblock"><g><svg viewBox="0 0 395.52 38.397531181689594" height="38.397531181689594" width="395.52"><g transform="matrix(1,0,0,1,0,0)"><svg width="395.52" viewBox="4.6 -37.5 387.27 37.75" height="38.397531181689594" data-palette-color="url(#afa3c42c-a0de-47d7-b60d-53fc86cd231b)"><g class="wordmark-text-0" data-fill-palette-color="primary" id="text-0"></g></svg></g></svg></g></svg></g></svg></g><g><svg viewBox="0 0 87.5314395760495 87.5314395760495" height="87.5314395760495" width="87.5314395760495"><g><svg></svg></g><g id="icon-0"><svg viewBox="0 0 87.5314395760495 87.5314395760495" height="87.5314395760495" width="87.5314395760495"><g></g><g transform="matrix(1,0,0,1,22.516554647646394,23.90915530091413)"><svg viewBox="0 0 42.498330280756704 39.713128974221235" height="39.713128974221235" width="42.498330280756704"><g><svg xmlns="http://www.w3.org/2000/svg" xmlns:xlink="http://www.w3.org/1999/xlink" version="1.1" x="0" y="0" viewBox="5.9 12.6 88.5 82.7" enable-background="new 0 0 100 100" xml:space="preserve" height="39.713128974221235" width="42.498330280756704" class="icon-dxe-0" data-fill-palette-color="accent" id="dxe-0"></svg></g></svg></g></svg></g></svg></g></svg></g><defs></defs><mask id="e004a66c-9cbc-422d-b5a6-078dd5b5cb5b"><g id="SvgjsG2159"><svg viewBox="0 0 395.52 69.0777207206147" height="69.0777207206147" width="395.52"><g><svg viewBox="0 0 501.18091071854656 87.5314395760495" height="69.0777207206147" width="395.52"><g transform="matrix(1,0,0,1,105.6609107185466,24.56695419717995)"><svg viewBox="0 0 395.52 38.397531181689594" height="38.397531181689594" width="395.52"><g id="SvgjsG2158"><svg viewBox="0 0 395.52 38.397531181689594" height="38.397531181689594" width="395.52" id="SvgjsSvg2157"><g><svg viewBox="0 0 395.52 38.397531181689594" height="38.397531181689594" width="395.52"><g transform="matrix(1,0,0,1,0,0)"><svg width="395.52" viewBox="4.6 -37.5 387.27 37.75" height="38.397531181689594" data-palette-color="url(#afa3c42c-a0de-47d7-b60d-53fc86cd231b)"><g class="wordmark-text-0" data-fill-palette-color="primary" id="SvgjsG2156"><path d="M4.6 0L4.6-35 29.6-35 29.6-29.95 10.5-29.95 10.5-20.1 27.6-20.1 27.6-15.1 10.5-15.1 10.5-5.05 30.2-5.05 30.2 0 4.6 0ZM37.3 0L37.3-37.1 43.05-37.1 43.05 0 37.3 0ZM53.95-15.2L70.2-15.2Q70.1-17.45 69.17-19.03 68.25-20.6 66.6-21.48 64.95-22.35 62.8-22.35L62.8-22.35Q60.4-22.35 58.62-21.25 56.85-20.15 55.85-18.18 54.85-16.2 54.85-13.55L54.85-13.55Q54.85-10.7 55.92-8.6 57-6.5 58.92-5.35 60.85-4.2 63.35-4.2L63.35-4.2Q67.8-4.2 70.85-7.35L70.85-7.35 73.9-4.3Q71.95-2.15 69.15-0.98 66.35 0.2 62.9 0.2L62.9 0.2Q58.8 0.2 55.75-1.5 52.7-3.2 51-6.23 49.3-9.25 49.3-13.25L49.3-13.25Q49.3-17.25 51-20.28 52.7-23.3 55.75-25 58.8-26.7 62.75-26.75L62.75-26.75Q67.45-26.75 70.3-24.83 73.15-22.9 74.35-19.4 75.55-15.9 75.2-11.1L75.2-11.1 53.95-11.1 53.95-15.2ZM103.09-22.65L99.94-18.95Q98.54-20.4 96.64-21.2 94.74-22 92.34-22L92.34-22Q90.04-22 88.24-20.9 86.44-19.8 85.44-17.82 84.44-15.85 84.44-13.25L84.44-13.25Q84.44-10.65 85.44-8.68 86.44-6.7 88.24-5.58 90.04-4.45 92.34-4.45L92.34-4.45Q94.84-4.45 96.84-5.28 98.84-6.1 100.19-7.7L100.19-7.7 103.39-4.55Q101.59-2.3 98.72-1.05 95.84 0.2 92.09 0.2L92.09 0.2Q88.14 0.2 85.12-1.5 82.09-3.2 80.39-6.23 78.69-9.25 78.69-13.25L78.69-13.25Q78.69-17.25 80.39-20.28 82.09-23.3 85.12-25.03 88.14-26.75 92.09-26.75L92.09-26.75Q95.69-26.75 98.47-25.68 101.24-24.6 103.09-22.65L103.09-22.65ZM116.14-32.85L116.14-8.4Q116.14-6.25 116.89-5.48 117.64-4.7 118.99-4.7L118.99-4.7Q119.89-4.7 120.87-5 121.84-5.3 122.99-5.9L122.99-5.9 124.44-1.75Q122.89-0.8 121.24-0.28 119.59 0.25 117.89 0.25L117.89 0.25Q115.89 0.25 114.19-0.53 112.49-1.3 111.47-3 110.44-4.7 110.44-7.4L110.44-7.4 110.44-32.85 116.14-32.85ZM106.69-21.5L106.69-25.6 123.99-25.6 123.99-21.5 106.69-21.5ZM144.69-26.75L144.69-21.55Q141.84-21.7 139.76-20.58 137.69-19.45 136.56-17.45 135.44-15.45 135.44-12.85L135.44-12.85 133.84-13.05Q133.84-17.5 135.14-20.55 136.44-23.6 138.89-25.18 141.34-26.75 144.69-26.75L144.69-26.75ZM129.74 0L129.74-26.55 135.49-26.55 135.49 0 129.74 0ZM160.84-26.75L160.84-26.75Q164.94-26.75 168.06-25.05 171.19-23.35 172.94-20.33 174.69-17.3 174.69-13.3L174.69-13.3Q174.69-9.3 172.94-6.25 171.19-3.2 168.06-1.5 164.94 0.2 160.84 0.2L160.84 0.2Q156.74 0.2 153.59-1.5 150.44-3.2 148.69-6.25 146.94-9.3 146.94-13.3L146.94-13.3Q146.94-17.3 148.69-20.33 150.44-23.35 153.59-25.05 156.74-26.75 160.84-26.75ZM160.84-22.1L160.84-22.1Q158.44-22.1 156.59-20.98 154.74-19.85 153.71-17.85 152.69-15.85 152.69-13.25L152.69-13.25Q152.69-10.6 153.71-8.6 154.74-6.6 156.59-5.48 158.44-4.35 160.84-4.35L160.84-4.35Q163.24-4.35 165.06-5.48 166.88-6.6 167.91-8.6 168.94-10.6 168.94-13.25L168.94-13.25Q168.94-15.85 167.91-17.85 166.88-19.85 165.06-20.98 163.24-22.1 160.84-22.1ZM200.38 0L200.38-15Q200.38-18.1 198.68-19.88 196.98-21.65 193.98-21.65L193.98-21.65Q190.43-21.6 188.41-19.15 186.38-16.7 186.38-13.05L186.38-13.05 184.78-13.05Q184.78-18 186.18-21 187.58-24 190.16-25.38 192.73-26.75 196.23-26.75L196.23-26.75Q199.33-26.75 201.56-25.5 203.78-24.25 204.96-21.98 206.13-19.7 206.13-16.5L206.13-16.5 206.13 0 200.38 0ZM180.68 0L180.68-26.55 186.43-26.55 186.43 0 180.68 0ZM213.83 0L213.83-26.55 219.53-26.55 219.53 0 213.83 0ZM216.68-37.5L216.68-37.5Q218.13-37.5 219.08-36.55 220.03-35.6 220.03-34.15L220.03-34.15Q220.03-32.75 219.08-31.78 218.13-30.8 216.68-30.8L216.68-30.8Q215.28-30.8 214.31-31.78 213.33-32.75 213.33-34.15L213.33-34.15Q213.33-35.6 214.31-36.55 215.28-37.5 216.68-37.5ZM249.93-22.65L246.78-18.95Q245.38-20.4 243.48-21.2 241.58-22 239.18-22L239.18-22Q236.88-22 235.08-20.9 233.28-19.8 232.28-17.82 231.28-15.85 231.28-13.25L231.28-13.25Q231.28-10.65 232.28-8.68 233.28-6.7 235.08-5.58 236.88-4.45 239.18-4.45L239.18-4.45Q241.68-4.45 243.68-5.28 245.68-6.1 247.03-7.7L247.03-7.7 250.23-4.55Q248.43-2.3 245.55-1.05 242.68 0.2 238.93 0.2L238.93 0.2Q234.98 0.2 231.95-1.5 228.93-3.2 227.23-6.23 225.53-9.25 225.53-13.25L225.53-13.25Q225.53-17.25 227.23-20.28 228.93-23.3 231.95-25.03 234.98-26.75 238.93-26.75L238.93-26.75Q242.53-26.75 245.3-25.68 248.08-24.6 249.93-22.65L249.93-22.65ZM273.48-24.15L271.38-20.1Q269.63-21.15 267.55-21.78 265.48-22.4 263.73-22.4L263.73-22.4Q262.03-22.4 260.93-21.75 259.83-21.1 259.83-19.6L259.83-19.6Q259.83-18.35 260.85-17.63 261.88-16.9 263.48-16.4 265.08-15.9 266.88-15.35 268.68-14.8 270.3-13.93 271.93-13.05 272.93-11.55 273.93-10.05 273.93-7.6L273.93-7.6Q273.93-4.9 272.5-3.18 271.08-1.45 268.75-0.63 266.43 0.2 263.73 0.2L263.73 0.2Q260.83 0.2 257.93-0.75 255.03-1.7 253.03-3.5L253.03-3.5 255.08-7.4Q256.83-5.85 259.33-4.98 261.83-4.1 263.98-4.1L263.98-4.1Q265.23-4.1 266.2-4.42 267.18-4.75 267.75-5.4 268.33-6.05 268.33-7.1L268.33-7.1Q268.33-8.5 267.33-9.3 266.33-10.1 264.73-10.63 263.13-11.15 261.33-11.68 259.53-12.2 257.95-13.05 256.38-13.9 255.38-15.35 254.38-16.8 254.38-19.2L254.38-19.2Q254.38-21.9 255.78-23.58 257.18-25.25 259.4-26.03 261.63-26.8 264.18-26.8L264.18-26.8Q266.68-26.8 269.18-26.1 271.68-25.4 273.48-24.15L273.48-24.15Z" fill="white"></path><path d="M292.03 0L292.03-35 297.93-35 297.93-19.65 316.48-19.65 316.48-35 322.38-35 322.38 0 316.48 0 316.48-14.65 297.93-14.65 297.93 0 292.03 0ZM336.13-26.55L336.13-11.55Q336.13-8.45 337.78-6.68 339.43-4.9 342.33-4.9L342.33-4.9Q345.78-5 347.7-7.45 349.63-9.9 349.63-13.5L349.63-13.5 351.18-13.5Q351.18-8.6 349.83-5.6 348.48-2.6 346-1.23 343.53 0.15 340.13 0.2L340.13 0.2Q337.08 0.2 334.9-1.05 332.73-2.3 331.55-4.6 330.38-6.9 330.38-10.05L330.38-10.05 330.38-26.55 336.13-26.55ZM349.63 0L349.63-26.55 355.38-26.55 355.38 0 349.63 0ZM379.17-26.75L379.17-26.75Q382.97-26.75 385.82-25.05 388.67-23.35 390.27-20.3 391.87-17.25 391.87-13.2L391.87-13.2Q391.87-9.25 390.3-6.23 388.72-3.2 385.9-1.5 383.07 0.2 379.27 0.2L379.27 0.2Q375.62 0.2 373.05-1.4 370.47-3 369.12-6.03 367.77-9.05 367.77-13.2L367.77-13.2Q367.77-17.5 369.12-20.53 370.47-23.55 373.05-25.15 375.62-26.75 379.17-26.75ZM377.97-22.2L377.97-22.2Q375.62-22.2 373.77-21.05 371.92-19.9 370.9-17.93 369.87-15.95 369.87-13.35L369.87-13.35Q369.87-10.75 370.9-8.72 371.92-6.7 373.77-5.58 375.62-4.45 377.97-4.45L377.97-4.45Q380.37-4.45 382.2-5.6 384.02-6.75 385.05-8.75 386.07-10.75 386.07-13.35L386.07-13.35Q386.07-15.9 385.05-17.9 384.02-19.9 382.2-21.05 380.37-22.2 377.97-22.2ZM364.12 0L364.12-37.1 369.87-37.1 369.87 0 364.12 0Z" fill="black"></path></g></svg></g></svg></g></svg></g></svg></g><g><svg viewBox="0 0 87.5314395760495 87.5314395760495" height="87.5314395760495" width="87.5314395760495"><g><svg></svg></g><g id="SvgjsG2155"><svg viewBox="0 0 87.5314395760495 87.5314395760495" height="87.5314395760495" width="87.5314395760495"><g><path d="M0 43.766c0-24.171 19.595-43.766 43.766-43.766 24.171 0 43.766 19.595 43.765 43.766 0 24.171-19.595 43.766-43.765 43.765-24.171 0-43.766-19.595-43.766-43.765zM43.766 84.069c22.259 0 40.303-18.044 40.303-40.303 0-22.259-18.044-40.303-40.303-40.303-22.259 0-40.303 18.044-40.303 40.303 0 22.259 18.044 40.303 40.303 40.303z" fill="black" stroke="transparent"></path></g><g transform="matrix(1,0,0,1,22.516554647646394,23.90915530091413)"><svg viewBox="0 0 42.498330280756704 39.713128974221235" height="39.713128974221235" width="42.498330280756704"><g><svg xmlns="http://www.w3.org/2000/svg" xmlns:xlink="http://www.w3.org/1999/xlink" version="1.1" x="0" y="0" viewBox="5.9 12.6 88.5 82.7" enable-background="new 0 0 100 100" xml:space="preserve" height="39.713128974221235" width="42.498330280756704" class="icon-dxe-0" data-fill-palette-color="accent" id="SvgjsSvg2154"><g fill="black"><circle fill="black" cx="14" cy="41.5" r="4.0"></circle><circle fill="black" cx="73.1" cy="20.9" r="4.0"></circle><circle fill="black" cx="85.8" cy="80.5" r="4.0"></circle><path fill="black" d="M88.8 72.7V59.5C88.8 57.9 87.5 56.5 85.8 56.5H72.2V46.5H79.7C80.8 48.5 82.9 49.9 85.3 49.9 88.8 49.9 91.7 47 91.7 43.5S88.8 37.1 85.3 37.1C82.7 37.1 80.5 38.6 79.5 40.8L72.2 40.7V40.4C72.2 36.8 69.3 33.9 65.7 33.9H55.1V23.9H65.3C66.5 27 69.5 29.2 73 29.2 77.6 29.2 81.3 25.5 81.3 20.9S77.6 12.6 73 12.6C69.5 12.6 66.5 14.8 65.3 17.9H52.1C50.5 17.9 49.1 19.2 49.1 20.9V34H36.7C33.9 34 31.5 35.9 30.6 38.4H21.9C20.7 35.3 17.7 33.1 14.2 33.1 9.6 33.1 5.9 36.8 5.9 41.4S9.6 49.7 14.2 49.7C17.8 49.7 20.9 47.3 22 44.1L30.3 44.2V61.4H26.8C25.7 59.4 23.6 58 21.2 58 17.7 58 14.8 60.9 14.8 64.4S17.7 70.8 21.2 70.8C23.8 70.8 26 69.3 27 67.1H30.3V69.4C30.3 73 33.2 75.9 36.8 75.9H39.5V88.9C39.5 90.5 40.8 91.9 42.5 91.9H50C51.1 93.9 53.2 95.3 55.6 95.3 59.1 95.3 62 92.4 62 88.9S59.1 82.5 55.6 82.5C53.2 82.5 51.1 83.9 50 85.9H45.5V75.9H65.9C69.5 75.9 72.4 73 72.4 69.4V62.5H83.1V72.7C80 73.9 77.8 76.9 77.8 80.4 77.8 85 81.5 88.7 86.1 88.7S94.4 85 94.4 80.4C94.1 76.9 91.9 73.9 88.8 72.7M73.1 16.9C75.3 16.9 77.1 18.7 77.1 20.9S75.3 24.9 73.1 24.9 69.1 23.1 69.1 20.9 70.9 16.9 73.1 16.9M14 45.5C11.8 45.5 10 43.7 10 41.5S11.8 37.5 14 37.5 18 39.3 18 41.5 16.3 45.5 14 45.5M85.8 84.5C83.6 84.5 81.8 82.7 81.8 80.5S83.6 76.5 85.8 76.5 89.8 78.3 89.8 80.5C89.9 82.7 88.1 84.5 85.8 84.5"></path></g></svg></g></svg></g></svg></g></svg></g></svg></g><defs><mask></mask></defs></svg><rect width="395.52" height="69.0777207206147" fill="black" stroke="none" visibility="hidden"></rect></g></mask><linearGradient x1="0.054" x2="0.941" y1="0.5" y2="0.5" id="afa3c42c-a0de-47d7-b60d-53fc86cd231b"><stop stop-color="#9c7945" offset="0"></stop><stop stop-color="#faf3aa" offset="0.498"></stop><stop stop-color="#9c7945" offset="1"></stop></linearGradient><rect width="395.52" height="69.0777207206147" fill="url(#afa3c42c-a0de-47d7-b60d-53fc86cd231b)" mask="url(#e004a66c-9cbc-422d-b5a6-078dd5b5cb5b)" data-fill-palette-color="primary"></rect><mask id="05122e6a-e3ad-472f-8af7-ed5e0ca34169"><g id="SvgjsG2171"><svg viewBox="0 0 395.52 69.0777207206147" height="69.0777207206147" width="395.52"><g><svg viewBox="0 0 501.18091071854656 87.5314395760495" height="69.0777207206147" width="395.52"><g transform="matrix(1,0,0,1,105.6609107185466,24.56695419717995)"><svg viewBox="0 0 395.52 38.397531181689594" height="38.397531181689594" width="395.52"><g id="SvgjsG2170"><svg viewBox="0 0 395.52 38.397531181689594" height="38.397531181689594" width="395.52" id="SvgjsSvg2169"><g><svg viewBox="0 0 395.52 38.397531181689594" height="38.397531181689594" width="395.52"><g transform="matrix(1,0,0,1,0,0)"><svg width="395.52" viewBox="4.6 -37.5 387.27 37.75" height="38.397531181689594" data-palette-color="url(#afa3c42c-a0de-47d7-b60d-53fc86cd231b)"><g class="wordmark-text-0" data-fill-palette-color="primary" id="SvgjsG2168"><path d="M292.03 0L292.03-35 297.93-35 297.93-19.65 316.48-19.65 316.48-35 322.38-35 322.38 0 316.48 0 316.48-14.65 297.93-14.65 297.93 0 292.03 0ZM336.13-26.55L336.13-11.55Q336.13-8.45 337.78-6.68 339.43-4.9 342.33-4.9L342.33-4.9Q345.78-5 347.7-7.45 349.63-9.9 349.63-13.5L349.63-13.5 351.18-13.5Q351.18-8.6 349.83-5.6 348.48-2.6 346-1.23 343.53 0.15 340.13 0.2L340.13 0.2Q337.08 0.2 334.9-1.05 332.73-2.3 331.55-4.6 330.38-6.9 330.38-10.05L330.38-10.05 330.38-26.55 336.13-26.55ZM349.63 0L349.63-26.55 355.38-26.55 355.38 0 349.63 0ZM379.17-26.75L379.17-26.75Q382.97-26.75 385.82-25.05 388.67-23.35 390.27-20.3 391.87-17.25 391.87-13.2L391.87-13.2Q391.87-9.25 390.3-6.23 388.72-3.2 385.9-1.5 383.07 0.2 379.27 0.2L379.27 0.2Q375.62 0.2 373.05-1.4 370.47-3 369.12-6.03 367.77-9.05 367.77-13.2L367.77-13.2Q367.77-17.5 369.12-20.53 370.47-23.55 373.05-25.15 375.62-26.75 379.17-26.75ZM377.97-22.2L377.97-22.2Q375.62-22.2 373.77-21.05 371.92-19.9 370.9-17.93 369.87-15.95 369.87-13.35L369.87-13.35Q369.87-10.75 370.9-8.72 371.92-6.7 373.77-5.58 375.62-4.45 377.97-4.45L377.97-4.45Q380.37-4.45 382.2-5.6 384.02-6.75 385.05-8.75 386.07-10.75 386.07-13.35L386.07-13.35Q386.07-15.9 385.05-17.9 384.02-19.9 382.2-21.05 380.37-22.2 377.97-22.2ZM364.12 0L364.12-37.1 369.87-37.1 369.87 0 364.12 0Z" fill="white"></path></g></svg></g></svg></g></svg></g></svg></g><g><svg viewBox="0 0 87.5314395760495 87.5314395760495" height="87.5314395760495" width="87.5314395760495"><g><svg></svg></g><g id="SvgjsG2167"><svg viewBox="0 0 87.5314395760495 87.5314395760495" height="87.5314395760495" width="87.5314395760495"><g><path d="M0 43.766c0-24.171 19.595-43.766 43.766-43.766 24.171 0 43.766 19.595 43.765 43.766 0 24.171-19.595 43.766-43.765 43.765-24.171 0-43.766-19.595-43.766-43.765zM43.766 84.069c22.259 0 40.303-18.044 40.303-40.303 0-22.259-18.044-40.303-40.303-40.303-22.259 0-40.303 18.044-40.303 40.303 0 22.259 18.044 40.303 40.303 40.303z" fill="black" stroke="transparent"></path></g><g transform="matrix(1,0,0,1,22.516554647646394,23.90915530091413)"><svg viewBox="0 0 42.498330280756704 39.713128974221235" height="39.713128974221235" width="42.498330280756704"><g><svg xmlns="http://www.w3.org/2000/svg" xmlns:xlink="http://www.w3.org/1999/xlink" version="1.1" x="0" y="0" viewBox="5.9 12.6 88.5 82.7" enable-background="new 0 0 100 100" xml:space="preserve" height="39.713128974221235" width="42.498330280756704" class="icon-dxe-0" data-fill-palette-color="accent" id="SvgjsSvg2166"><g fill="black"><circle fill="black" cx="14" cy="41.5" r="4.0"></circle><circle fill="black" cx="73.1" cy="20.9" r="4.0"></circle><circle fill="black" cx="85.8" cy="80.5" r="4.0"></circle><path fill="black" d="M88.8 72.7V59.5C88.8 57.9 87.5 56.5 85.8 56.5H72.2V46.5H79.7C80.8 48.5 82.9 49.9 85.3 49.9 88.8 49.9 91.7 47 91.7 43.5S88.8 37.1 85.3 37.1C82.7 37.1 80.5 38.6 79.5 40.8L72.2 40.7V40.4C72.2 36.8 69.3 33.9 65.7 33.9H55.1V23.9H65.3C66.5 27 69.5 29.2 73 29.2 77.6 29.2 81.3 25.5 81.3 20.9S77.6 12.6 73 12.6C69.5 12.6 66.5 14.8 65.3 17.9H52.1C50.5 17.9 49.1 19.2 49.1 20.9V34H36.7C33.9 34 31.5 35.9 30.6 38.4H21.9C20.7 35.3 17.7 33.1 14.2 33.1 9.6 33.1 5.9 36.8 5.9 41.4S9.6 49.7 14.2 49.7C17.8 49.7 20.9 47.3 22 44.1L30.3 44.2V61.4H26.8C25.7 59.4 23.6 58 21.2 58 17.7 58 14.8 60.9 14.8 64.4S17.7 70.8 21.2 70.8C23.8 70.8 26 69.3 27 67.1H30.3V69.4C30.3 73 33.2 75.9 36.8 75.9H39.5V88.9C39.5 90.5 40.8 91.9 42.5 91.9H50C51.1 93.9 53.2 95.3 55.6 95.3 59.1 95.3 62 92.4 62 88.9S59.1 82.5 55.6 82.5C53.2 82.5 51.1 83.9 50 85.9H45.5V75.9H65.9C69.5 75.9 72.4 73 72.4 69.4V62.5H83.1V72.7C80 73.9 77.8 76.9 77.8 80.4 77.8 85 81.5 88.7 86.1 88.7S94.4 85 94.4 80.4C94.1 76.9 91.9 73.9 88.8 72.7M73.1 16.9C75.3 16.9 77.1 18.7 77.1 20.9S75.3 24.9 73.1 24.9 69.1 23.1 69.1 20.9 70.9 16.9 73.1 16.9M14 45.5C11.8 45.5 10 43.7 10 41.5S11.8 37.5 14 37.5 18 39.3 18 41.5 16.3 45.5 14 45.5M85.8 84.5C83.6 84.5 81.8 82.7 81.8 80.5S83.6 76.5 85.8 76.5 89.8 78.3 89.8 80.5C89.9 82.7 88.1 84.5 85.8 84.5"></path></g></svg></g></svg></g></svg></g></svg></g></svg></g><defs><mask></mask></defs><mask><g id="SvgjsG2165"><svg viewBox="0 0 395.52 69.0777207206147" height="69.0777207206147" width="395.52"><g><svg viewBox="0 0 501.18091071854656 87.5314395760495" height="69.0777207206147" width="395.52"><g transform="matrix(1,0,0,1,105.6609107185466,24.56695419717995)"><svg viewBox="0 0 395.52 38.397531181689594" height="38.397531181689594" width="395.52"><g id="SvgjsG2164"><svg viewBox="0 0 395.52 38.397531181689594" height="38.397531181689594" width="395.52" id="SvgjsSvg2163"><g><svg viewBox="0 0 395.52 38.397531181689594" height="38.397531181689594" width="395.52"><g transform="matrix(1,0,0,1,0,0)"><svg width="395.52" viewBox="4.6 -37.5 387.27 37.75" height="38.397531181689594" data-palette-color="url(#afa3c42c-a0de-47d7-b60d-53fc86cd231b)"><g class="wordmark-text-0" data-fill-palette-color="primary" id="SvgjsG2162"><path d="M4.6 0L4.6-35 29.6-35 29.6-29.95 10.5-29.95 10.5-20.1 27.6-20.1 27.6-15.1 10.5-15.1 10.5-5.05 30.2-5.05 30.2 0 4.6 0ZM37.3 0L37.3-37.1 43.05-37.1 43.05 0 37.3 0ZM53.95-15.2L70.2-15.2Q70.1-17.45 69.17-19.03 68.25-20.6 66.6-21.48 64.95-22.35 62.8-22.35L62.8-22.35Q60.4-22.35 58.62-21.25 56.85-20.15 55.85-18.18 54.85-16.2 54.85-13.55L54.85-13.55Q54.85-10.7 55.92-8.6 57-6.5 58.92-5.35 60.85-4.2 63.35-4.2L63.35-4.2Q67.8-4.2 70.85-7.35L70.85-7.35 73.9-4.3Q71.95-2.15 69.15-0.98 66.35 0.2 62.9 0.2L62.9 0.2Q58.8 0.2 55.75-1.5 52.7-3.2 51-6.23 49.3-9.25 49.3-13.25L49.3-13.25Q49.3-17.25 51-20.28 52.7-23.3 55.75-25 58.8-26.7 62.75-26.75L62.75-26.75Q67.45-26.75 70.3-24.83 73.15-22.9 74.35-19.4 75.55-15.9 75.2-11.1L75.2-11.1 53.95-11.1 53.95-15.2ZM103.09-22.65L99.94-18.95Q98.54-20.4 96.64-21.2 94.74-22 92.34-22L92.34-22Q90.04-22 88.24-20.9 86.44-19.8 85.44-17.82 84.44-15.85 84.44-13.25L84.44-13.25Q84.44-10.65 85.44-8.68 86.44-6.7 88.24-5.58 90.04-4.45 92.34-4.45L92.34-4.45Q94.84-4.45 96.84-5.28 98.84-6.1 100.19-7.7L100.19-7.7 103.39-4.55Q101.59-2.3 98.72-1.05 95.84 0.2 92.09 0.2L92.09 0.2Q88.14 0.2 85.12-1.5 82.09-3.2 80.39-6.23 78.69-9.25 78.69-13.25L78.69-13.25Q78.69-17.25 80.39-20.28 82.09-23.3 85.12-25.03 88.14-26.75 92.09-26.75L92.09-26.75Q95.69-26.75 98.47-25.68 101.24-24.6 103.09-22.65L103.09-22.65ZM116.14-32.85L116.14-8.4Q116.14-6.25 116.89-5.48 117.64-4.7 118.99-4.7L118.99-4.7Q119.89-4.7 120.87-5 121.84-5.3 122.99-5.9L122.99-5.9 124.44-1.75Q122.89-0.8 121.24-0.28 119.59 0.25 117.89 0.25L117.89 0.25Q115.89 0.25 114.19-0.53 112.49-1.3 111.47-3 110.44-4.7 110.44-7.4L110.44-7.4 110.44-32.85 116.14-32.85ZM106.69-21.5L106.69-25.6 123.99-25.6 123.99-21.5 106.69-21.5ZM144.69-26.75L144.69-21.55Q141.84-21.7 139.76-20.58 137.69-19.45 136.56-17.45 135.44-15.45 135.44-12.85L135.44-12.85 133.84-13.05Q133.84-17.5 135.14-20.55 136.44-23.6 138.89-25.18 141.34-26.75 144.69-26.75L144.69-26.75ZM129.74 0L129.74-26.55 135.49-26.55 135.49 0 129.74 0ZM160.84-26.75L160.84-26.75Q164.94-26.75 168.06-25.05 171.19-23.35 172.94-20.33 174.69-17.3 174.69-13.3L174.69-13.3Q174.69-9.3 172.94-6.25 171.19-3.2 168.06-1.5 164.94 0.2 160.84 0.2L160.84 0.2Q156.74 0.2 153.59-1.5 150.44-3.2 148.69-6.25 146.94-9.3 146.94-13.3L146.94-13.3Q146.94-17.3 148.69-20.33 150.44-23.35 153.59-25.05 156.74-26.75 160.84-26.75ZM160.84-22.1L160.84-22.1Q158.44-22.1 156.59-20.98 154.74-19.85 153.71-17.85 152.69-15.85 152.69-13.25L152.69-13.25Q152.69-10.6 153.71-8.6 154.74-6.6 156.59-5.48 158.44-4.35 160.84-4.35L160.84-4.35Q163.24-4.35 165.06-5.48 166.88-6.6 167.91-8.6 168.94-10.6 168.94-13.25L168.94-13.25Q168.94-15.85 167.91-17.85 166.88-19.85 165.06-20.98 163.24-22.1 160.84-22.1ZM200.38 0L200.38-15Q200.38-18.1 198.68-19.88 196.98-21.65 193.98-21.65L193.98-21.65Q190.43-21.6 188.41-19.15 186.38-16.7 186.38-13.05L186.38-13.05 184.78-13.05Q184.78-18 186.18-21 187.58-24 190.16-25.38 192.73-26.75 196.23-26.75L196.23-26.75Q199.33-26.75 201.56-25.5 203.78-24.25 204.96-21.98 206.13-19.7 206.13-16.5L206.13-16.5 206.13 0 200.38 0ZM180.68 0L180.68-26.55 186.43-26.55 186.43 0 180.68 0ZM213.83 0L213.83-26.55 219.53-26.55 219.53 0 213.83 0ZM216.68-37.5L216.68-37.5Q218.13-37.5 219.08-36.55 220.03-35.6 220.03-34.15L220.03-34.15Q220.03-32.75 219.08-31.78 218.13-30.8 216.68-30.8L216.68-30.8Q215.28-30.8 214.31-31.78 213.33-32.75 213.33-34.15L213.33-34.15Q213.33-35.6 214.31-36.55 215.28-37.5 216.68-37.5ZM249.93-22.65L246.78-18.95Q245.38-20.4 243.48-21.2 241.58-22 239.18-22L239.18-22Q236.88-22 235.08-20.9 233.28-19.8 232.28-17.82 231.28-15.85 231.28-13.25L231.28-13.25Q231.28-10.65 232.28-8.68 233.28-6.7 235.08-5.58 236.88-4.45 239.18-4.45L239.18-4.45Q241.68-4.45 243.68-5.28 245.68-6.1 247.03-7.7L247.03-7.7 250.23-4.55Q248.43-2.3 245.55-1.05 242.68 0.2 238.93 0.2L238.93 0.2Q234.98 0.2 231.95-1.5 228.93-3.2 227.23-6.23 225.53-9.25 225.53-13.25L225.53-13.25Q225.53-17.25 227.23-20.28 228.93-23.3 231.95-25.03 234.98-26.75 238.93-26.75L238.93-26.75Q242.53-26.75 245.3-25.68 248.08-24.6 249.93-22.65L249.93-22.65ZM273.48-24.15L271.38-20.1Q269.63-21.15 267.55-21.78 265.48-22.4 263.73-22.4L263.73-22.4Q262.03-22.4 260.93-21.75 259.83-21.1 259.83-19.6L259.83-19.6Q259.83-18.35 260.85-17.63 261.88-16.9 263.48-16.4 265.08-15.9 266.88-15.35 268.68-14.8 270.3-13.93 271.93-13.05 272.93-11.55 273.93-10.05 273.93-7.6L273.93-7.6Q273.93-4.9 272.5-3.18 271.08-1.45 268.75-0.63 266.43 0.2 263.73 0.2L263.73 0.2Q260.83 0.2 257.93-0.75 255.03-1.7 253.03-3.5L253.03-3.5 255.08-7.4Q256.83-5.85 259.33-4.98 261.83-4.1 263.98-4.1L263.98-4.1Q265.23-4.1 266.2-4.42 267.18-4.75 267.75-5.4 268.33-6.05 268.33-7.1L268.33-7.1Q268.33-8.5 267.33-9.3 266.33-10.1 264.73-10.63 263.13-11.15 261.33-11.68 259.53-12.2 257.95-13.05 256.38-13.9 255.38-15.35 254.38-16.8 254.38-19.2L254.38-19.2Q254.38-21.9 255.78-23.58 257.18-25.25 259.4-26.03 261.63-26.8 264.18-26.8L264.18-26.8Q266.68-26.8 269.18-26.1 271.68-25.4 273.48-24.15L273.48-24.15Z" fill="black"></path><path d="M292.03 0L292.03-35 297.93-35 297.93-19.65 316.48-19.65 316.48-35 322.38-35 322.38 0 316.48 0 316.48-14.65 297.93-14.65 297.93 0 292.03 0ZM336.13-26.55L336.13-11.55Q336.13-8.45 337.78-6.68 339.43-4.9 342.33-4.9L342.33-4.9Q345.78-5 347.7-7.45 349.63-9.9 349.63-13.5L349.63-13.5 351.18-13.5Q351.18-8.6 349.83-5.6 348.48-2.6 346-1.23 343.53 0.15 340.13 0.2L340.13 0.2Q337.08 0.2 334.9-1.05 332.73-2.3 331.55-4.6 330.38-6.9 330.38-10.05L330.38-10.05 330.38-26.55 336.13-26.55ZM349.63 0L349.63-26.55 355.38-26.55 355.38 0 349.63 0ZM379.17-26.75L379.17-26.75Q382.97-26.75 385.82-25.05 388.67-23.35 390.27-20.3 391.87-17.25 391.87-13.2L391.87-13.2Q391.87-9.25 390.3-6.23 388.72-3.2 385.9-1.5 383.07 0.2 379.27 0.2L379.27 0.2Q375.62 0.2 373.05-1.4 370.47-3 369.12-6.03 367.77-9.05 367.77-13.2L367.77-13.2Q367.77-17.5 369.12-20.53 370.47-23.55 373.05-25.15 375.62-26.75 379.17-26.75ZM377.97-22.2L377.97-22.2Q375.62-22.2 373.77-21.05 371.92-19.9 370.9-17.93 369.87-15.95 369.87-13.35L369.87-13.35Q369.87-10.75 370.9-8.72 371.92-6.7 373.77-5.58 375.62-4.45 377.97-4.45L377.97-4.45Q380.37-4.45 382.2-5.6 384.02-6.75 385.05-8.75 386.07-10.75 386.07-13.35L386.07-13.35Q386.07-15.9 385.05-17.9 384.02-19.9 382.2-21.05 380.37-22.2 377.97-22.2ZM364.12 0L364.12-37.1 369.87-37.1 369.87 0 364.12 0Z" fill="black"></path></g></svg></g></svg></g></svg></g></svg></g><g><svg viewBox="0 0 87.5314395760495 87.5314395760495" height="87.5314395760495" width="87.5314395760495"><g><svg></svg></g><g id="SvgjsG2161"><svg viewBox="0 0 87.5314395760495 87.5314395760495" height="87.5314395760495" width="87.5314395760495"><g><path d="M0 43.766c0-24.171 19.595-43.766 43.766-43.766 24.171 0 43.766 19.595 43.765 43.766 0 24.171-19.595 43.766-43.765 43.765-24.171 0-43.766-19.595-43.766-43.765zM43.766 84.069c22.259 0 40.303-18.044 40.303-40.303 0-22.259-18.044-40.303-40.303-40.303-22.259 0-40.303 18.044-40.303 40.303 0 22.259 18.044 40.303 40.303 40.303z" fill="black" stroke="transparent"></path></g><g transform="matrix(1,0,0,1,22.516554647646394,23.90915530091413)"><svg viewBox="0 0 42.498330280756704 39.713128974221235" height="39.713128974221235" width="42.498330280756704"><g><svg xmlns="http://www.w3.org/2000/svg" xmlns:xlink="http://www.w3.org/1999/xlink" version="1.1" x="0" y="0" viewBox="5.9 12.6 88.5 82.7" enable-background="new 0 0 100 100" xml:space="preserve" height="39.713128974221235" width="42.498330280756704" class="icon-dxe-0" data-fill-palette-color="accent" id="SvgjsSvg2160"><g fill="black"><circle fill="black" cx="14" cy="41.5" r="4.0"></circle><circle fill="black" cx="73.1" cy="20.9" r="4.0"></circle><circle fill="black" cx="85.8" cy="80.5" r="4.0"></circle><path fill="black" d="M88.8 72.7V59.5C88.8 57.9 87.5 56.5 85.8 56.5H72.2V46.5H79.7C80.8 48.5 82.9 49.9 85.3 49.9 88.8 49.9 91.7 47 91.7 43.5S88.8 37.1 85.3 37.1C82.7 37.1 80.5 38.6 79.5 40.8L72.2 40.7V40.4C72.2 36.8 69.3 33.9 65.7 33.9H55.1V23.9H65.3C66.5 27 69.5 29.2 73 29.2 77.6 29.2 81.3 25.5 81.3 20.9S77.6 12.6 73 12.6C69.5 12.6 66.5 14.8 65.3 17.9H52.1C50.5 17.9 49.1 19.2 49.1 20.9V34H36.7C33.9 34 31.5 35.9 30.6 38.4H21.9C20.7 35.3 17.7 33.1 14.2 33.1 9.6 33.1 5.9 36.8 5.9 41.4S9.6 49.7 14.2 49.7C17.8 49.7 20.9 47.3 22 44.1L30.3 44.2V61.4H26.8C25.7 59.4 23.6 58 21.2 58 17.7 58 14.8 60.9 14.8 64.4S17.7 70.8 21.2 70.8C23.8 70.8 26 69.3 27 67.1H30.3V69.4C30.3 73 33.2 75.9 36.8 75.9H39.5V88.9C39.5 90.5 40.8 91.9 42.5 91.9H50C51.1 93.9 53.2 95.3 55.6 95.3 59.1 95.3 62 92.4 62 88.9S59.1 82.5 55.6 82.5C53.2 82.5 51.1 83.9 50 85.9H45.5V75.9H65.9C69.5 75.9 72.4 73 72.4 69.4V62.5H83.1V72.7C80 73.9 77.8 76.9 77.8 80.4 77.8 85 81.5 88.7 86.1 88.7S94.4 85 94.4 80.4C94.1 76.9 91.9 73.9 88.8 72.7M73.1 16.9C75.3 16.9 77.1 18.7 77.1 20.9S75.3 24.9 73.1 24.9 69.1 23.1 69.1 20.9 70.9 16.9 73.1 16.9M14 45.5C11.8 45.5 10 43.7 10 41.5S11.8 37.5 14 37.5 18 39.3 18 41.5 16.3 45.5 14 45.5M85.8 84.5C83.6 84.5 81.8 82.7 81.8 80.5S83.6 76.5 85.8 76.5 89.8 78.3 89.8 80.5C89.9 82.7 88.1 84.5 85.8 84.5"></path></g></svg></g></svg></g></svg></g></svg></g></svg></g><defs><mask></mask></defs></svg><rect width="395.52" height="69.0777207206147" fill="black" stroke="none" visibility="hidden"></rect></g></mask></svg><rect width="395.52" height="69.0777207206147" fill="black" stroke="none" visibility="hidden"></rect></g></mask><linearGradient x1="0.054" x2="0.941" y1="0.5" y2="0.5" id="db9e7e28-80d5-40ee-ba56-1e8f40cb5d25"><stop stop-color="#9c7945" offset="0"></stop><stop stop-color="#faf3aa" offset="0.498"></stop><stop stop-color="#9c7945" offset="1"></stop></linearGradient><rect width="395.52" height="69.0777207206147" fill="url(#db9e7e28-80d5-40ee-ba56-1e8f40cb5d25)" mask="url(#05122e6a-e3ad-472f-8af7-ed5e0ca34169)" data-fill-palette-color="secondary"></rect><mask id="9c675802-e968-47c0-85e0-0d1885146e7b"><g id="SvgjsG2195"><svg viewBox="0 0 395.52 69.0777207206147" height="69.0777207206147" width="395.52"><g><svg viewBox="0 0 501.18091071854656 87.5314395760495" height="69.0777207206147" width="395.52"><g transform="matrix(1,0,0,1,105.6609107185466,24.56695419717995)"><svg viewBox="0 0 395.52 38.397531181689594" height="38.397531181689594" width="395.52"><g id="SvgjsG2194"><svg viewBox="0 0 395.52 38.397531181689594" height="38.397531181689594" width="395.52" id="SvgjsSvg2193"><g><svg viewBox="0 0 395.52 38.397531181689594" height="38.397531181689594" width="395.52"><g transform="matrix(1,0,0,1,0,0)"><svg width="395.52" viewBox="4.6 -37.5 387.27 37.75" height="38.397531181689594" data-palette-color="url(#afa3c42c-a0de-47d7-b60d-53fc86cd231b)"><g class="wordmark-text-0" data-fill-palette-color="primary" id="SvgjsG2192"></g></svg></g></svg></g></svg></g></svg></g><g><svg viewBox="0 0 87.5314395760495 87.5314395760495" height="87.5314395760495" width="87.5314395760495"><g><svg></svg></g><g id="SvgjsG2191"><svg viewBox="0 0 87.5314395760495 87.5314395760495" height="87.5314395760495" width="87.5314395760495"><g><path d="M0 43.766c0-24.171 19.595-43.766 43.766-43.766 24.171 0 43.766 19.595 43.765 43.766 0 24.171-19.595 43.766-43.765 43.765-24.171 0-43.766-19.595-43.766-43.765zM43.766 84.069c22.259 0 40.303-18.044 40.303-40.303 0-22.259-18.044-40.303-40.303-40.303-22.259 0-40.303 18.044-40.303 40.303 0 22.259 18.044 40.303 40.303 40.303z" fill="white" stroke="transparent"></path></g><g transform="matrix(1,0,0,1,22.516554647646394,23.90915530091413)"><svg viewBox="0 0 42.498330280756704 39.713128974221235" height="39.713128974221235" width="42.498330280756704"><g><svg xmlns="http://www.w3.org/2000/svg" xmlns:xlink="http://www.w3.org/1999/xlink" version="1.1" x="0" y="0" viewBox="5.9 12.6 88.5 82.7" enable-background="new 0 0 100 100" xml:space="preserve" height="39.713128974221235" width="42.498330280756704" class="icon-dxe-0" data-fill-palette-color="accent" id="SvgjsSvg2190"><g fill="white"><circle fill="black" cx="14" cy="41.5" r="4.0"></circle><circle fill="black" cx="73.1" cy="20.9" r="4.0"></circle><circle fill="black" cx="85.8" cy="80.5" r="4.0"></circle><path fill="white" d="M88.8 72.7V59.5C88.8 57.9 87.5 56.5 85.8 56.5H72.2V46.5H79.7C80.8 48.5 82.9 49.9 85.3 49.9 88.8 49.9 91.7 47 91.7 43.5S88.8 37.1 85.3 37.1C82.7 37.1 80.5 38.6 79.5 40.8L72.2 40.7V40.4C72.2 36.8 69.3 33.9 65.7 33.9H55.1V23.9H65.3C66.5 27 69.5 29.2 73 29.2 77.6 29.2 81.3 25.5 81.3 20.9S77.6 12.6 73 12.6C69.5 12.6 66.5 14.8 65.3 17.9H52.1C50.5 17.9 49.1 19.2 49.1 20.9V34H36.7C33.9 34 31.5 35.9 30.6 38.4H21.9C20.7 35.3 17.7 33.1 14.2 33.1 9.6 33.1 5.9 36.8 5.9 41.4S9.6 49.7 14.2 49.7C17.8 49.7 20.9 47.3 22 44.1L30.3 44.2V61.4H26.8C25.7 59.4 23.6 58 21.2 58 17.7 58 14.8 60.9 14.8 64.4S17.7 70.8 21.2 70.8C23.8 70.8 26 69.3 27 67.1H30.3V69.4C30.3 73 33.2 75.9 36.8 75.9H39.5V88.9C39.5 90.5 40.8 91.9 42.5 91.9H50C51.1 93.9 53.2 95.3 55.6 95.3 59.1 95.3 62 92.4 62 88.9S59.1 82.5 55.6 82.5C53.2 82.5 51.1 83.9 50 85.9H45.5V75.9H65.9C69.5 75.9 72.4 73 72.4 69.4V62.5H83.1V72.7C80 73.9 77.8 76.9 77.8 80.4 77.8 85 81.5 88.7 86.1 88.7S94.4 85 94.4 80.4C94.1 76.9 91.9 73.9 88.8 72.7M73.1 16.9C75.3 16.9 77.1 18.7 77.1 20.9S75.3 24.9 73.1 24.9 69.1 23.1 69.1 20.9 70.9 16.9 73.1 16.9M14 45.5C11.8 45.5 10 43.7 10 41.5S11.8 37.5 14 37.5 18 39.3 18 41.5 16.3 45.5 14 45.5M85.8 84.5C83.6 84.5 81.8 82.7 81.8 80.5S83.6 76.5 85.8 76.5 89.8 78.3 89.8 80.5C89.9 82.7 88.1 84.5 85.8 84.5"></path></g></svg></g></svg></g></svg></g></svg></g></svg></g><defs><mask></mask></defs><mask><g id="SvgjsG2189"><svg viewBox="0 0 395.52 69.0777207206147" height="69.0777207206147" width="395.52"><g><svg viewBox="0 0 501.18091071854656 87.5314395760495" height="69.0777207206147" width="395.52"><g transform="matrix(1,0,0,1,105.6609107185466,24.56695419717995)"><svg viewBox="0 0 395.52 38.397531181689594" height="38.397531181689594" width="395.52"><g id="SvgjsG2188"><svg viewBox="0 0 395.52 38.397531181689594" height="38.397531181689594" width="395.52" id="SvgjsSvg2187"><g><svg viewBox="0 0 395.52 38.397531181689594" height="38.397531181689594" width="395.52"><g transform="matrix(1,0,0,1,0,0)"><svg width="395.52" viewBox="4.6 -37.5 387.27 37.75" height="38.397531181689594" data-palette-color="url(#afa3c42c-a0de-47d7-b60d-53fc86cd231b)"><g class="wordmark-text-0" data-fill-palette-color="primary" id="SvgjsG2186"><path d="M4.6 0L4.6-35 29.6-35 29.6-29.95 10.5-29.95 10.5-20.1 27.6-20.1 27.6-15.1 10.5-15.1 10.5-5.05 30.2-5.05 30.2 0 4.6 0ZM37.3 0L37.3-37.1 43.05-37.1 43.05 0 37.3 0ZM53.95-15.2L70.2-15.2Q70.1-17.45 69.17-19.03 68.25-20.6 66.6-21.48 64.95-22.35 62.8-22.35L62.8-22.35Q60.4-22.35 58.62-21.25 56.85-20.15 55.85-18.18 54.85-16.2 54.85-13.55L54.85-13.55Q54.85-10.7 55.92-8.6 57-6.5 58.92-5.35 60.85-4.2 63.35-4.2L63.35-4.2Q67.8-4.2 70.85-7.35L70.85-7.35 73.9-4.3Q71.95-2.15 69.15-0.98 66.35 0.2 62.9 0.2L62.9 0.2Q58.8 0.2 55.75-1.5 52.7-3.2 51-6.23 49.3-9.25 49.3-13.25L49.3-13.25Q49.3-17.25 51-20.28 52.7-23.3 55.75-25 58.8-26.7 62.75-26.75L62.75-26.75Q67.45-26.75 70.3-24.83 73.15-22.9 74.35-19.4 75.55-15.9 75.2-11.1L75.2-11.1 53.95-11.1 53.95-15.2ZM103.09-22.65L99.94-18.95Q98.54-20.4 96.64-21.2 94.74-22 92.34-22L92.34-22Q90.04-22 88.24-20.9 86.44-19.8 85.44-17.82 84.44-15.85 84.44-13.25L84.44-13.25Q84.44-10.65 85.44-8.68 86.44-6.7 88.24-5.58 90.04-4.45 92.34-4.45L92.34-4.45Q94.84-4.45 96.84-5.28 98.84-6.1 100.19-7.7L100.19-7.7 103.39-4.55Q101.59-2.3 98.72-1.05 95.84 0.2 92.09 0.2L92.09 0.2Q88.14 0.2 85.12-1.5 82.09-3.2 80.39-6.23 78.69-9.25 78.69-13.25L78.69-13.25Q78.69-17.25 80.39-20.28 82.09-23.3 85.12-25.03 88.14-26.75 92.09-26.75L92.09-26.75Q95.69-26.75 98.47-25.68 101.24-24.6 103.09-22.65L103.09-22.65ZM116.14-32.85L116.14-8.4Q116.14-6.25 116.89-5.48 117.64-4.7 118.99-4.7L118.99-4.7Q119.89-4.7 120.87-5 121.84-5.3 122.99-5.9L122.99-5.9 124.44-1.75Q122.89-0.8 121.24-0.28 119.59 0.25 117.89 0.25L117.89 0.25Q115.89 0.25 114.19-0.53 112.49-1.3 111.47-3 110.44-4.7 110.44-7.4L110.44-7.4 110.44-32.85 116.14-32.85ZM106.69-21.5L106.69-25.6 123.99-25.6 123.99-21.5 106.69-21.5ZM144.69-26.75L144.69-21.55Q141.84-21.7 139.76-20.58 137.69-19.45 136.56-17.45 135.44-15.45 135.44-12.85L135.44-12.85 133.84-13.05Q133.84-17.5 135.14-20.55 136.44-23.6 138.89-25.18 141.34-26.75 144.69-26.75L144.69-26.75ZM129.74 0L129.74-26.55 135.49-26.55 135.49 0 129.74 0ZM160.84-26.75L160.84-26.75Q164.94-26.75 168.06-25.05 171.19-23.35 172.94-20.33 174.69-17.3 174.69-13.3L174.69-13.3Q174.69-9.3 172.94-6.25 171.19-3.2 168.06-1.5 164.94 0.2 160.84 0.2L160.84 0.2Q156.74 0.2 153.59-1.5 150.44-3.2 148.69-6.25 146.94-9.3 146.94-13.3L146.94-13.3Q146.94-17.3 148.69-20.33 150.44-23.35 153.59-25.05 156.74-26.75 160.84-26.75ZM160.84-22.1L160.84-22.1Q158.44-22.1 156.59-20.98 154.74-19.85 153.71-17.85 152.69-15.85 152.69-13.25L152.69-13.25Q152.69-10.6 153.71-8.6 154.74-6.6 156.59-5.48 158.44-4.35 160.84-4.35L160.84-4.35Q163.24-4.35 165.06-5.48 166.88-6.6 167.91-8.6 168.94-10.6 168.94-13.25L168.94-13.25Q168.94-15.85 167.91-17.85 166.88-19.85 165.06-20.98 163.24-22.1 160.84-22.1ZM200.38 0L200.38-15Q200.38-18.1 198.68-19.88 196.98-21.65 193.98-21.65L193.98-21.65Q190.43-21.6 188.41-19.15 186.38-16.7 186.38-13.05L186.38-13.05 184.78-13.05Q184.78-18 186.18-21 187.58-24 190.16-25.38 192.73-26.75 196.23-26.75L196.23-26.75Q199.33-26.75 201.56-25.5 203.78-24.25 204.96-21.98 206.13-19.7 206.13-16.5L206.13-16.5 206.13 0 200.38 0ZM180.68 0L180.68-26.55 186.43-26.55 186.43 0 180.68 0ZM213.83 0L213.83-26.55 219.53-26.55 219.53 0 213.83 0ZM216.68-37.5L216.68-37.5Q218.13-37.5 219.08-36.55 220.03-35.6 220.03-34.15L220.03-34.15Q220.03-32.75 219.08-31.78 218.13-30.8 216.68-30.8L216.68-30.8Q215.28-30.8 214.31-31.78 213.33-32.75 213.33-34.15L213.33-34.15Q213.33-35.6 214.31-36.55 215.28-37.5 216.68-37.5ZM249.93-22.65L246.78-18.95Q245.38-20.4 243.48-21.2 241.58-22 239.18-22L239.18-22Q236.88-22 235.08-20.9 233.28-19.8 232.28-17.82 231.28-15.85 231.28-13.25L231.28-13.25Q231.28-10.65 232.28-8.68 233.28-6.7 235.08-5.58 236.88-4.45 239.18-4.45L239.18-4.45Q241.68-4.45 243.68-5.28 245.68-6.1 247.03-7.7L247.03-7.7 250.23-4.55Q248.43-2.3 245.55-1.05 242.68 0.2 238.93 0.2L238.93 0.2Q234.98 0.2 231.95-1.5 228.93-3.2 227.23-6.23 225.53-9.25 225.53-13.25L225.53-13.25Q225.53-17.25 227.23-20.28 228.93-23.3 231.95-25.03 234.98-26.75 238.93-26.75L238.93-26.75Q242.53-26.75 245.3-25.68 248.08-24.6 249.93-22.65L249.93-22.65ZM273.48-24.15L271.38-20.1Q269.63-21.15 267.55-21.78 265.48-22.4 263.73-22.4L263.73-22.4Q262.03-22.4 260.93-21.75 259.83-21.1 259.83-19.6L259.83-19.6Q259.83-18.35 260.85-17.63 261.88-16.9 263.48-16.4 265.08-15.9 266.88-15.35 268.68-14.8 270.3-13.93 271.93-13.05 272.93-11.55 273.93-10.05 273.93-7.6L273.93-7.6Q273.93-4.9 272.5-3.18 271.08-1.45 268.75-0.63 266.43 0.2 263.73 0.2L263.73 0.2Q260.83 0.2 257.93-0.75 255.03-1.7 253.03-3.5L253.03-3.5 255.08-7.4Q256.83-5.85 259.33-4.98 261.83-4.1 263.98-4.1L263.98-4.1Q265.23-4.1 266.2-4.42 267.18-4.75 267.75-5.4 268.33-6.05 268.33-7.1L268.33-7.1Q268.33-8.5 267.33-9.3 266.33-10.1 264.73-10.63 263.13-11.15 261.33-11.68 259.53-12.2 257.95-13.05 256.38-13.9 255.38-15.35 254.38-16.8 254.38-19.2L254.38-19.2Q254.38-21.9 255.78-23.58 257.18-25.25 259.4-26.03 261.63-26.8 264.18-26.8L264.18-26.8Q266.68-26.8 269.18-26.1 271.68-25.4 273.48-24.15L273.48-24.15Z" fill="black"></path><path d="M292.03 0L292.03-35 297.93-35 297.93-19.65 316.48-19.65 316.48-35 322.38-35 322.38 0 316.48 0 316.48-14.65 297.93-14.65 297.93 0 292.03 0ZM336.13-26.55L336.13-11.55Q336.13-8.45 337.78-6.68 339.43-4.9 342.33-4.9L342.33-4.9Q345.78-5 347.7-7.45 349.63-9.9 349.63-13.5L349.63-13.5 351.18-13.5Q351.18-8.6 349.83-5.6 348.48-2.6 346-1.23 343.53 0.15 340.13 0.2L340.13 0.2Q337.08 0.2 334.9-1.05 332.73-2.3 331.55-4.6 330.38-6.9 330.38-10.05L330.38-10.05 330.38-26.55 336.13-26.55ZM349.63 0L349.63-26.55 355.38-26.55 355.38 0 349.63 0ZM379.17-26.75L379.17-26.75Q382.97-26.75 385.82-25.05 388.67-23.35 390.27-20.3 391.87-17.25 391.87-13.2L391.87-13.2Q391.87-9.25 390.3-6.23 388.72-3.2 385.9-1.5 383.07 0.2 379.27 0.2L379.27 0.2Q375.62 0.2 373.05-1.4 370.47-3 369.12-6.03 367.77-9.05 367.77-13.2L367.77-13.2Q367.77-17.5 369.12-20.53 370.47-23.55 373.05-25.15 375.62-26.75 379.17-26.75ZM377.97-22.2L377.97-22.2Q375.62-22.2 373.77-21.05 371.92-19.9 370.9-17.93 369.87-15.95 369.87-13.35L369.87-13.35Q369.87-10.75 370.9-8.72 371.92-6.7 373.77-5.58 375.62-4.45 377.97-4.45L377.97-4.45Q380.37-4.45 382.2-5.6 384.02-6.75 385.05-8.75 386.07-10.75 386.07-13.35L386.07-13.35Q386.07-15.9 385.05-17.9 384.02-19.9 382.2-21.05 380.37-22.2 377.97-22.2ZM364.12 0L364.12-37.1 369.87-37.1 369.87 0 364.12 0Z" fill="black"></path></g></svg></g></svg></g></svg></g></svg></g><g><svg viewBox="0 0 87.5314395760495 87.5314395760495" height="87.5314395760495" width="87.5314395760495"><g><svg></svg></g><g id="SvgjsG2185"><svg viewBox="0 0 87.5314395760495 87.5314395760495" height="87.5314395760495" width="87.5314395760495"><g><path d="M0 43.766c0-24.171 19.595-43.766 43.766-43.766 24.171 0 43.766 19.595 43.765 43.766 0 24.171-19.595 43.766-43.765 43.765-24.171 0-43.766-19.595-43.766-43.765zM43.766 84.069c22.259 0 40.303-18.044 40.303-40.303 0-22.259-18.044-40.303-40.303-40.303-22.259 0-40.303 18.044-40.303 40.303 0 22.259 18.044 40.303 40.303 40.303z" fill="black" stroke="transparent"></path></g><g transform="matrix(1,0,0,1,22.516554647646394,23.90915530091413)"><svg viewBox="0 0 42.498330280756704 39.713128974221235" height="39.713128974221235" width="42.498330280756704"><g><svg xmlns="http://www.w3.org/2000/svg" xmlns:xlink="http://www.w3.org/1999/xlink" version="1.1" x="0" y="0" viewBox="5.9 12.6 88.5 82.7" enable-background="new 0 0 100 100" xml:space="preserve" height="39.713128974221235" width="42.498330280756704" class="icon-dxe-0" data-fill-palette-color="accent" id="SvgjsSvg2184"><g fill="black"><circle fill="black" cx="14" cy="41.5" r="4.0"></circle><circle fill="black" cx="73.1" cy="20.9" r="4.0"></circle><circle fill="black" cx="85.8" cy="80.5" r="4.0"></circle><path fill="black" d="M88.8 72.7V59.5C88.8 57.9 87.5 56.5 85.8 56.5H72.2V46.5H79.7C80.8 48.5 82.9 49.9 85.3 49.9 88.8 49.9 91.7 47 91.7 43.5S88.8 37.1 85.3 37.1C82.7 37.1 80.5 38.6 79.5 40.8L72.2 40.7V40.4C72.2 36.8 69.3 33.9 65.7 33.9H55.1V23.9H65.3C66.5 27 69.5 29.2 73 29.2 77.6 29.2 81.3 25.5 81.3 20.9S77.6 12.6 73 12.6C69.5 12.6 66.5 14.8 65.3 17.9H52.1C50.5 17.9 49.1 19.2 49.1 20.9V34H36.7C33.9 34 31.5 35.9 30.6 38.4H21.9C20.7 35.3 17.7 33.1 14.2 33.1 9.6 33.1 5.9 36.8 5.9 41.4S9.6 49.7 14.2 49.7C17.8 49.7 20.9 47.3 22 44.1L30.3 44.2V61.4H26.8C25.7 59.4 23.6 58 21.2 58 17.7 58 14.8 60.9 14.8 64.4S17.7 70.8 21.2 70.8C23.8 70.8 26 69.3 27 67.1H30.3V69.4C30.3 73 33.2 75.9 36.8 75.9H39.5V88.9C39.5 90.5 40.8 91.9 42.5 91.9H50C51.1 93.9 53.2 95.3 55.6 95.3 59.1 95.3 62 92.4 62 88.9S59.1 82.5 55.6 82.5C53.2 82.5 51.1 83.9 50 85.9H45.5V75.9H65.9C69.5 75.9 72.4 73 72.4 69.4V62.5H83.1V72.7C80 73.9 77.8 76.9 77.8 80.4 77.8 85 81.5 88.7 86.1 88.7S94.4 85 94.4 80.4C94.1 76.9 91.9 73.9 88.8 72.7M73.1 16.9C75.3 16.9 77.1 18.7 77.1 20.9S75.3 24.9 73.1 24.9 69.1 23.1 69.1 20.9 70.9 16.9 73.1 16.9M14 45.5C11.8 45.5 10 43.7 10 41.5S11.8 37.5 14 37.5 18 39.3 18 41.5 16.3 45.5 14 45.5M85.8 84.5C83.6 84.5 81.8 82.7 81.8 80.5S83.6 76.5 85.8 76.5 89.8 78.3 89.8 80.5C89.9 82.7 88.1 84.5 85.8 84.5"></path></g></svg></g></svg></g></svg></g></svg></g></svg></g><defs><mask></mask></defs></svg><rect width="395.52" height="69.0777207206147" fill="black" stroke="none" visibility="hidden"></rect></g></mask><mask><g id="SvgjsG2183"><svg viewBox="0 0 395.52 69.0777207206147" height="69.0777207206147" width="395.52"><g><svg viewBox="0 0 501.18091071854656 87.5314395760495" height="69.0777207206147" width="395.52"><g transform="matrix(1,0,0,1,105.6609107185466,24.56695419717995)"><svg viewBox="0 0 395.52 38.397531181689594" height="38.397531181689594" width="395.52"><g id="SvgjsG2182"><svg viewBox="0 0 395.52 38.397531181689594" height="38.397531181689594" width="395.52" id="SvgjsSvg2181"><g><svg viewBox="0 0 395.52 38.397531181689594" height="38.397531181689594" width="395.52"><g transform="matrix(1,0,0,1,0,0)"><svg width="395.52" viewBox="4.6 -37.5 387.27 37.75" height="38.397531181689594" data-palette-color="url(#afa3c42c-a0de-47d7-b60d-53fc86cd231b)"><g class="wordmark-text-0" data-fill-palette-color="primary" id="SvgjsG2180"><path d="M292.03 0L292.03-35 297.93-35 297.93-19.65 316.48-19.65 316.48-35 322.38-35 322.38 0 316.48 0 316.48-14.65 297.93-14.65 297.93 0 292.03 0ZM336.13-26.55L336.13-11.55Q336.13-8.45 337.78-6.68 339.43-4.9 342.33-4.9L342.33-4.9Q345.78-5 347.7-7.45 349.63-9.9 349.63-13.5L349.63-13.5 351.18-13.5Q351.18-8.6 349.83-5.6 348.48-2.6 346-1.23 343.53 0.15 340.13 0.2L340.13 0.2Q337.08 0.2 334.9-1.05 332.73-2.3 331.55-4.6 330.38-6.9 330.38-10.05L330.38-10.05 330.38-26.55 336.13-26.55ZM349.63 0L349.63-26.55 355.38-26.55 355.38 0 349.63 0ZM379.17-26.75L379.17-26.75Q382.97-26.75 385.82-25.05 388.67-23.35 390.27-20.3 391.87-17.25 391.87-13.2L391.87-13.2Q391.87-9.25 390.3-6.23 388.72-3.2 385.9-1.5 383.07 0.2 379.27 0.2L379.27 0.2Q375.62 0.2 373.05-1.4 370.47-3 369.12-6.03 367.77-9.05 367.77-13.2L367.77-13.2Q367.77-17.5 369.12-20.53 370.47-23.55 373.05-25.15 375.62-26.75 379.17-26.75ZM377.97-22.2L377.97-22.2Q375.62-22.2 373.77-21.05 371.92-19.9 370.9-17.93 369.87-15.95 369.87-13.35L369.87-13.35Q369.87-10.75 370.9-8.72 371.92-6.7 373.77-5.58 375.62-4.45 377.97-4.45L377.97-4.45Q380.37-4.45 382.2-5.6 384.02-6.75 385.05-8.75 386.07-10.75 386.07-13.35L386.07-13.35Q386.07-15.9 385.05-17.9 384.02-19.9 382.2-21.05 380.37-22.2 377.97-22.2ZM364.12 0L364.12-37.1 369.87-37.1 369.87 0 364.12 0Z" fill="black"></path></g></svg></g></svg></g></svg></g></svg></g><g><svg viewBox="0 0 87.5314395760495 87.5314395760495" height="87.5314395760495" width="87.5314395760495"><g><svg></svg></g><g id="SvgjsG2179"><svg viewBox="0 0 87.5314395760495 87.5314395760495" height="87.5314395760495" width="87.5314395760495"><g><path d="M0 43.766c0-24.171 19.595-43.766 43.766-43.766 24.171 0 43.766 19.595 43.765 43.766 0 24.171-19.595 43.766-43.765 43.765-24.171 0-43.766-19.595-43.766-43.765zM43.766 84.069c22.259 0 40.303-18.044 40.303-40.303 0-22.259-18.044-40.303-40.303-40.303-22.259 0-40.303 18.044-40.303 40.303 0 22.259 18.044 40.303 40.303 40.303z" fill="black" stroke="transparent"></path></g><g transform="matrix(1,0,0,1,22.516554647646394,23.90915530091413)"><svg viewBox="0 0 42.498330280756704 39.713128974221235" height="39.713128974221235" width="42.498330280756704"><g><svg xmlns="http://www.w3.org/2000/svg" xmlns:xlink="http://www.w3.org/1999/xlink" version="1.1" x="0" y="0" viewBox="5.9 12.6 88.5 82.7" enable-background="new 0 0 100 100" xml:space="preserve" height="39.713128974221235" width="42.498330280756704" class="icon-dxe-0" data-fill-palette-color="accent" id="SvgjsSvg2178"><g fill="black"><circle fill="black" cx="14" cy="41.5" r="4.0"></circle><circle fill="black" cx="73.1" cy="20.9" r="4.0"></circle><circle fill="black" cx="85.8" cy="80.5" r="4.0"></circle><path fill="black" d="M88.8 72.7V59.5C88.8 57.9 87.5 56.5 85.8 56.5H72.2V46.5H79.7C80.8 48.5 82.9 49.9 85.3 49.9 88.8 49.9 91.7 47 91.7 43.5S88.8 37.1 85.3 37.1C82.7 37.1 80.5 38.6 79.5 40.8L72.2 40.7V40.4C72.2 36.8 69.3 33.9 65.7 33.9H55.1V23.9H65.3C66.5 27 69.5 29.2 73 29.2 77.6 29.2 81.3 25.5 81.3 20.9S77.6 12.6 73 12.6C69.5 12.6 66.5 14.8 65.3 17.9H52.1C50.5 17.9 49.1 19.2 49.1 20.9V34H36.7C33.9 34 31.5 35.9 30.6 38.4H21.9C20.7 35.3 17.7 33.1 14.2 33.1 9.6 33.1 5.9 36.8 5.9 41.4S9.6 49.7 14.2 49.7C17.8 49.7 20.9 47.3 22 44.1L30.3 44.2V61.4H26.8C25.7 59.4 23.6 58 21.2 58 17.7 58 14.8 60.9 14.8 64.4S17.7 70.8 21.2 70.8C23.8 70.8 26 69.3 27 67.1H30.3V69.4C30.3 73 33.2 75.9 36.8 75.9H39.5V88.9C39.5 90.5 40.8 91.9 42.5 91.9H50C51.1 93.9 53.2 95.3 55.6 95.3 59.1 95.3 62 92.4 62 88.9S59.1 82.5 55.6 82.5C53.2 82.5 51.1 83.9 50 85.9H45.5V75.9H65.9C69.5 75.9 72.4 73 72.4 69.4V62.5H83.1V72.7C80 73.9 77.8 76.9 77.8 80.4 77.8 85 81.5 88.7 86.1 88.7S94.4 85 94.4 80.4C94.1 76.9 91.9 73.9 88.8 72.7M73.1 16.9C75.3 16.9 77.1 18.7 77.1 20.9S75.3 24.9 73.1 24.9 69.1 23.1 69.1 20.9 70.9 16.9 73.1 16.9M14 45.5C11.8 45.5 10 43.7 10 41.5S11.8 37.5 14 37.5 18 39.3 18 41.5 16.3 45.5 14 45.5M85.8 84.5C83.6 84.5 81.8 82.7 81.8 80.5S83.6 76.5 85.8 76.5 89.8 78.3 89.8 80.5C89.9 82.7 88.1 84.5 85.8 84.5"></path></g></svg></g></svg></g></svg></g></svg></g></svg></g><defs><mask></mask></defs><mask><g id="SvgjsG2177"><svg viewBox="0 0 395.52 69.0777207206147" height="69.0777207206147" width="395.52"><g><svg viewBox="0 0 501.18091071854656 87.5314395760495" height="69.0777207206147" width="395.52"><g transform="matrix(1,0,0,1,105.6609107185466,24.56695419717995)"><svg viewBox="0 0 395.52 38.397531181689594" height="38.397531181689594" width="395.52"><g id="SvgjsG2176"><svg viewBox="0 0 395.52 38.397531181689594" height="38.397531181689594" width="395.52" id="SvgjsSvg2175"><g><svg viewBox="0 0 395.52 38.397531181689594" height="38.397531181689594" width="395.52"><g transform="matrix(1,0,0,1,0,0)"><svg width="395.52" viewBox="4.6 -37.5 387.27 37.75" height="38.397531181689594" data-palette-color="url(#afa3c42c-a0de-47d7-b60d-53fc86cd231b)"><g class="wordmark-text-0" data-fill-palette-color="primary" id="SvgjsG2174"><path d="M4.6 0L4.6-35 29.6-35 29.6-29.95 10.5-29.95 10.5-20.1 27.6-20.1 27.6-15.1 10.5-15.1 10.5-5.05 30.2-5.05 30.2 0 4.6 0ZM37.3 0L37.3-37.1 43.05-37.1 43.05 0 37.3 0ZM53.95-15.2L70.2-15.2Q70.1-17.45 69.17-19.03 68.25-20.6 66.6-21.48 64.95-22.35 62.8-22.35L62.8-22.35Q60.4-22.35 58.62-21.25 56.85-20.15 55.85-18.18 54.85-16.2 54.85-13.55L54.85-13.55Q54.85-10.7 55.92-8.6 57-6.5 58.92-5.35 60.85-4.2 63.35-4.2L63.35-4.2Q67.8-4.2 70.85-7.35L70.85-7.35 73.9-4.3Q71.95-2.15 69.15-0.98 66.35 0.2 62.9 0.2L62.9 0.2Q58.8 0.2 55.75-1.5 52.7-3.2 51-6.23 49.3-9.25 49.3-13.25L49.3-13.25Q49.3-17.25 51-20.28 52.7-23.3 55.75-25 58.8-26.7 62.75-26.75L62.75-26.75Q67.45-26.75 70.3-24.83 73.15-22.9 74.35-19.4 75.55-15.9 75.2-11.1L75.2-11.1 53.95-11.1 53.95-15.2ZM103.09-22.65L99.94-18.95Q98.54-20.4 96.64-21.2 94.74-22 92.34-22L92.34-22Q90.04-22 88.24-20.9 86.44-19.8 85.44-17.82 84.44-15.85 84.44-13.25L84.44-13.25Q84.44-10.65 85.44-8.68 86.44-6.7 88.24-5.58 90.04-4.45 92.34-4.45L92.34-4.45Q94.84-4.45 96.84-5.28 98.84-6.1 100.19-7.7L100.19-7.7 103.39-4.55Q101.59-2.3 98.72-1.05 95.84 0.2 92.09 0.2L92.09 0.2Q88.14 0.2 85.12-1.5 82.09-3.2 80.39-6.23 78.69-9.25 78.69-13.25L78.69-13.25Q78.69-17.25 80.39-20.28 82.09-23.3 85.12-25.03 88.14-26.75 92.09-26.75L92.09-26.75Q95.69-26.75 98.47-25.68 101.24-24.6 103.09-22.65L103.09-22.65ZM116.14-32.85L116.14-8.4Q116.14-6.25 116.89-5.48 117.64-4.7 118.99-4.7L118.99-4.7Q119.89-4.7 120.87-5 121.84-5.3 122.99-5.9L122.99-5.9 124.44-1.75Q122.89-0.8 121.24-0.28 119.59 0.25 117.89 0.25L117.89 0.25Q115.89 0.25 114.19-0.53 112.49-1.3 111.47-3 110.44-4.7 110.44-7.4L110.44-7.4 110.44-32.85 116.14-32.85ZM106.69-21.5L106.69-25.6 123.99-25.6 123.99-21.5 106.69-21.5ZM144.69-26.75L144.69-21.55Q141.84-21.7 139.76-20.58 137.69-19.45 136.56-17.45 135.44-15.45 135.44-12.85L135.44-12.85 133.84-13.05Q133.84-17.5 135.14-20.55 136.44-23.6 138.89-25.18 141.34-26.75 144.69-26.75L144.69-26.75ZM129.74 0L129.74-26.55 135.49-26.55 135.49 0 129.74 0ZM160.84-26.75L160.84-26.75Q164.94-26.75 168.06-25.05 171.19-23.35 172.94-20.33 174.69-17.3 174.69-13.3L174.69-13.3Q174.69-9.3 172.94-6.25 171.19-3.2 168.06-1.5 164.94 0.2 160.84 0.2L160.84 0.2Q156.74 0.2 153.59-1.5 150.44-3.2 148.69-6.25 146.94-9.3 146.94-13.3L146.94-13.3Q146.94-17.3 148.69-20.33 150.44-23.35 153.59-25.05 156.74-26.75 160.84-26.75ZM160.84-22.1L160.84-22.1Q158.44-22.1 156.59-20.98 154.74-19.85 153.71-17.85 152.69-15.85 152.69-13.25L152.69-13.25Q152.69-10.6 153.71-8.6 154.74-6.6 156.59-5.48 158.44-4.35 160.84-4.35L160.84-4.35Q163.24-4.35 165.06-5.48 166.88-6.6 167.91-8.6 168.94-10.6 168.94-13.25L168.94-13.25Q168.94-15.85 167.91-17.85 166.88-19.85 165.06-20.98 163.24-22.1 160.84-22.1ZM200.38 0L200.38-15Q200.38-18.1 198.68-19.88 196.98-21.65 193.98-21.65L193.98-21.65Q190.43-21.6 188.41-19.15 186.38-16.7 186.38-13.05L186.38-13.05 184.78-13.05Q184.78-18 186.18-21 187.58-24 190.16-25.38 192.73-26.75 196.23-26.75L196.23-26.75Q199.33-26.75 201.56-25.5 203.78-24.25 204.96-21.98 206.13-19.7 206.13-16.5L206.13-16.5 206.13 0 200.38 0ZM180.68 0L180.68-26.55 186.43-26.55 186.43 0 180.68 0ZM213.83 0L213.83-26.55 219.53-26.55 219.53 0 213.83 0ZM216.68-37.5L216.68-37.5Q218.13-37.5 219.08-36.55 220.03-35.6 220.03-34.15L220.03-34.15Q220.03-32.75 219.08-31.78 218.13-30.8 216.68-30.8L216.68-30.8Q215.28-30.8 214.31-31.78 213.33-32.75 213.33-34.15L213.33-34.15Q213.33-35.6 214.31-36.55 215.28-37.5 216.68-37.5ZM249.93-22.65L246.78-18.95Q245.38-20.4 243.48-21.2 241.58-22 239.18-22L239.18-22Q236.88-22 235.08-20.9 233.28-19.8 232.28-17.82 231.28-15.85 231.28-13.25L231.28-13.25Q231.28-10.65 232.28-8.68 233.28-6.7 235.08-5.58 236.88-4.45 239.18-4.45L239.18-4.45Q241.68-4.45 243.68-5.28 245.68-6.1 247.03-7.7L247.03-7.7 250.23-4.55Q248.43-2.3 245.55-1.05 242.68 0.2 238.93 0.2L238.93 0.2Q234.98 0.2 231.95-1.5 228.93-3.2 227.23-6.23 225.53-9.25 225.53-13.25L225.53-13.25Q225.53-17.25 227.23-20.28 228.93-23.3 231.95-25.03 234.98-26.75 238.93-26.75L238.93-26.75Q242.53-26.75 245.3-25.68 248.08-24.6 249.93-22.65L249.93-22.65ZM273.48-24.15L271.38-20.1Q269.63-21.15 267.55-21.78 265.48-22.4 263.73-22.4L263.73-22.4Q262.03-22.4 260.93-21.75 259.83-21.1 259.83-19.6L259.83-19.6Q259.83-18.35 260.85-17.63 261.88-16.9 263.48-16.4 265.08-15.9 266.88-15.35 268.68-14.8 270.3-13.93 271.93-13.05 272.93-11.55 273.93-10.05 273.93-7.6L273.93-7.6Q273.93-4.9 272.5-3.18 271.08-1.45 268.75-0.63 266.43 0.2 263.73 0.2L263.73 0.2Q260.83 0.2 257.93-0.75 255.03-1.7 253.03-3.5L253.03-3.5 255.08-7.4Q256.83-5.85 259.33-4.98 261.83-4.1 263.98-4.1L263.98-4.1Q265.23-4.1 266.2-4.42 267.18-4.75 267.75-5.4 268.33-6.05 268.33-7.1L268.33-7.1Q268.33-8.5 267.33-9.3 266.33-10.1 264.73-10.63 263.13-11.15 261.33-11.68 259.53-12.2 257.95-13.05 256.38-13.9 255.38-15.35 254.38-16.8 254.38-19.2L254.38-19.2Q254.38-21.9 255.78-23.58 257.18-25.25 259.4-26.03 261.63-26.8 264.18-26.8L264.18-26.8Q266.68-26.8 269.18-26.1 271.68-25.4 273.48-24.15L273.48-24.15Z" fill="black"></path><path d="M292.03 0L292.03-35 297.93-35 297.93-19.65 316.48-19.65 316.48-35 322.38-35 322.38 0 316.48 0 316.48-14.65 297.93-14.65 297.93 0 292.03 0ZM336.13-26.55L336.13-11.55Q336.13-8.45 337.78-6.68 339.43-4.9 342.33-4.9L342.33-4.9Q345.78-5 347.7-7.45 349.63-9.9 349.63-13.5L349.63-13.5 351.18-13.5Q351.18-8.6 349.83-5.6 348.48-2.6 346-1.23 343.53 0.15 340.13 0.2L340.13 0.2Q337.08 0.2 334.9-1.05 332.73-2.3 331.55-4.6 330.38-6.9 330.38-10.05L330.38-10.05 330.38-26.55 336.13-26.55ZM349.63 0L349.63-26.55 355.38-26.55 355.38 0 349.63 0ZM379.17-26.75L379.17-26.75Q382.97-26.75 385.82-25.05 388.67-23.35 390.27-20.3 391.87-17.25 391.87-13.2L391.87-13.2Q391.87-9.25 390.3-6.23 388.72-3.2 385.9-1.5 383.07 0.2 379.27 0.2L379.27 0.2Q375.62 0.2 373.05-1.4 370.47-3 369.12-6.03 367.77-9.05 367.77-13.2L367.77-13.2Q367.77-17.5 369.12-20.53 370.47-23.55 373.05-25.15 375.62-26.75 379.17-26.75ZM377.97-22.2L377.97-22.2Q375.62-22.2 373.77-21.05 371.92-19.9 370.9-17.93 369.87-15.95 369.87-13.35L369.87-13.35Q369.87-10.75 370.9-8.72 371.92-6.7 373.77-5.58 375.62-4.45 377.97-4.45L377.97-4.45Q380.37-4.45 382.2-5.6 384.02-6.75 385.05-8.75 386.07-10.75 386.07-13.35L386.07-13.35Q386.07-15.9 385.05-17.9 384.02-19.9 382.2-21.05 380.37-22.2 377.97-22.2ZM364.12 0L364.12-37.1 369.87-37.1 369.87 0 364.12 0Z" fill="black"></path></g></svg></g></svg></g></svg></g></svg></g><g><svg viewBox="0 0 87.5314395760495 87.5314395760495" height="87.5314395760495" width="87.5314395760495"><g><svg></svg></g><g id="SvgjsG2173"><svg viewBox="0 0 87.5314395760495 87.5314395760495" height="87.5314395760495" width="87.5314395760495"><g><path d="M0 43.766c0-24.171 19.595-43.766 43.766-43.766 24.171 0 43.766 19.595 43.765 43.766 0 24.171-19.595 43.766-43.765 43.765-24.171 0-43.766-19.595-43.766-43.765zM43.766 84.069c22.259 0 40.303-18.044 40.303-40.303 0-22.259-18.044-40.303-40.303-40.303-22.259 0-40.303 18.044-40.303 40.303 0 22.259 18.044 40.303 40.303 40.303z" fill="black" stroke="transparent"></path></g><g transform="matrix(1,0,0,1,22.516554647646394,23.90915530091413)"><svg viewBox="0 0 42.498330280756704 39.713128974221235" height="39.713128974221235" width="42.498330280756704"><g><svg xmlns="http://www.w3.org/2000/svg" xmlns:xlink="http://www.w3.org/1999/xlink" version="1.1" x="0" y="0" viewBox="5.9 12.6 88.5 82.7" enable-background="new 0 0 100 100" xml:space="preserve" height="39.713128974221235" width="42.498330280756704" class="icon-dxe-0" data-fill-palette-color="accent" id="SvgjsSvg2172"><g fill="black"><circle fill="black" cx="14" cy="41.5" r="4.0"></circle><circle fill="black" cx="73.1" cy="20.9" r="4.0"></circle><circle fill="black" cx="85.8" cy="80.5" r="4.0"></circle><path fill="black" d="M88.8 72.7V59.5C88.8 57.9 87.5 56.5 85.8 56.5H72.2V46.5H79.7C80.8 48.5 82.9 49.9 85.3 49.9 88.8 49.9 91.7 47 91.7 43.5S88.8 37.1 85.3 37.1C82.7 37.1 80.5 38.6 79.5 40.8L72.2 40.7V40.4C72.2 36.8 69.3 33.9 65.7 33.9H55.1V23.9H65.3C66.5 27 69.5 29.2 73 29.2 77.6 29.2 81.3 25.5 81.3 20.9S77.6 12.6 73 12.6C69.5 12.6 66.5 14.8 65.3 17.9H52.1C50.5 17.9 49.1 19.2 49.1 20.9V34H36.7C33.9 34 31.5 35.9 30.6 38.4H21.9C20.7 35.3 17.7 33.1 14.2 33.1 9.6 33.1 5.9 36.8 5.9 41.4S9.6 49.7 14.2 49.7C17.8 49.7 20.9 47.3 22 44.1L30.3 44.2V61.4H26.8C25.7 59.4 23.6 58 21.2 58 17.7 58 14.8 60.9 14.8 64.4S17.7 70.8 21.2 70.8C23.8 70.8 26 69.3 27 67.1H30.3V69.4C30.3 73 33.2 75.9 36.8 75.9H39.5V88.9C39.5 90.5 40.8 91.9 42.5 91.9H50C51.1 93.9 53.2 95.3 55.6 95.3 59.1 95.3 62 92.4 62 88.9S59.1 82.5 55.6 82.5C53.2 82.5 51.1 83.9 50 85.9H45.5V75.9H65.9C69.5 75.9 72.4 73 72.4 69.4V62.5H83.1V72.7C80 73.9 77.8 76.9 77.8 80.4 77.8 85 81.5 88.7 86.1 88.7S94.4 85 94.4 80.4C94.1 76.9 91.9 73.9 88.8 72.7M73.1 16.9C75.3 16.9 77.1 18.7 77.1 20.9S75.3 24.9 73.1 24.9 69.1 23.1 69.1 20.9 70.9 16.9 73.1 16.9M14 45.5C11.8 45.5 10 43.7 10 41.5S11.8 37.5 14 37.5 18 39.3 18 41.5 16.3 45.5 14 45.5M85.8 84.5C83.6 84.5 81.8 82.7 81.8 80.5S83.6 76.5 85.8 76.5 89.8 78.3 89.8 80.5C89.9 82.7 88.1 84.5 85.8 84.5"></path></g></svg></g></svg></g></svg></g></svg></g></svg></g><defs><mask></mask></defs></svg><rect width="395.52" height="69.0777207206147" fill="black" stroke="none" visibility="hidden"></rect></g></mask></svg><rect width="395.52" height="69.0777207206147" fill="black" stroke="none" visibility="hidden"></rect></g></mask></svg><rect width="395.52" height="69.0777207206147" fill="black" stroke="none" visibility="hidden"></rect></g></mask><linearGradient x1="0.054" x2="0.941" y1="0.5" y2="0.5" id="257a89cc-edd1-4dc3-b71e-a7afb4daadaa"><stop stop-color="#9c7945" offset="0"></stop><stop stop-color="#faf3aa" offset="0.498"></stop><stop stop-color="#9c7945" offset="1"></stop></linearGradient><rect width="395.52" height="69.0777207206147" fill="url(#257a89cc-edd1-4dc3-b71e-a7afb4daadaa)" mask="url(#9c675802-e968-47c0-85e0-0d1885146e7b)" data-fill-palette-color="accent"></rect></svg><rect width="395.52" height="69.0777207206147" fill="none" stroke="none" visibility="hidden"></rect></g></svg></g></svg>